PathFileType	4	(X/Y/Z)	C:\Users\WrightLab\Desktop\Jo\P5V26.trc
DataRate	CameraRate	NumFrames	NumMarkers	Units	OrigDataRate	OrigDataStartFrame	OrigNumFrames
100.00	100.00	       25	19	mm	100.00	93	       739
Frame#	Time	Headset_Front			Headset_Back			Headset_Left			Headset_Right			Left_Shoulder			Right_Shoulder			Sternum			C7			Left Elbow			Right Elbow			Left Wrist			Right Wrist			Left ASIS			Right ASIS			S2			Left Knee			Right Knee			Left Ankle			Right Ankle			
		X1	Y1	Z1	X2	Y2	Z2	X3	Y3	Z3	X4	Y4	Z4	X5	Y5	Z5	X6	Y6	Z6	X7	Y7	Z7	X8	Y8	Z8	X9	Y9	Z9	X10	Y10	Z10	X11	Y11	Z11	X12	Y12	Z12	X13	Y13	Z13	X14	Y14	Z14	X15	Y15	Z15	X16	Y16	Z16	X17	Y17	Z17	X18	Y18	Z18	X19	Y19	Z19	

93	0.920										-303.64713	1587.40173	-1179.69568																-491.75198	1174.14795	-1315.89832							-44.20375	909.72827	-1232.00073	-316.39380	934.70508	-1225.98889	-468.23041	1046.83472	-1110.34412	-20.43930	465.78537	-1287.98071	-394.22595	472.86011	-1288.25940				-387.45868	76.85554	-1426.51672	
94	0.930										-303.62900	1587.47583	-1179.45923																-491.55756	1174.17578	-1315.30566							-43.88404	909.74097	-1231.76001	-316.12323	934.97711	-1224.71191	-468.31198	1046.59570	-1109.57373	-20.49277	465.56079	-1286.27502	-393.96768	473.10526	-1287.63965				-387.45969	76.87183	-1426.52527	
95	0.940										-303.64185	1587.51990	-1179.44995																-491.31528	1174.18030	-1314.72021							-42.84471	909.80139	-1231.21545	-315.86389	935.27264	-1223.49341	-468.23297	1046.65479	-1108.49951	-20.22739	465.10504	-1285.09204	-393.86368	473.01419	-1287.30518				-387.49054	76.84347	-1426.67310	
96	0.950										-303.65253	1587.54419	-1179.44531																-491.07657	1174.17468	-1314.10291							-42.73058	909.53113	-1230.13599	-315.59189	935.58594	-1222.21606	-467.69409	1046.14685	-1107.83899	-20.10125	465.20667	-1284.31201	-393.78271	473.13403	-1286.17200				-387.38974	77.03120	-1426.21191	
97	0.960										-303.60681	1587.33105	-1178.91931																-490.81577	1174.17773	-1313.52087							-42.53820	910.31921	-1229.63440	-315.28616	935.91638	-1220.77661	-467.64133	1046.04565	-1107.62708	-19.98663	465.32962	-1283.60645	-393.36017	473.57364	-1285.40820				-387.37344	77.14900	-1426.15710	
98	0.970										-303.60330	1587.20349	-1178.72485																-490.56848	1174.17480	-1312.98181							-42.41516	910.32843	-1229.54175	-314.63937	935.40405	-1220.59058	-467.34363	1045.47522	-1106.48779	-20.26288	465.58496	-1280.80786	-393.19580	473.77493	-1284.78796				-387.33499	77.20979	-1425.97888	
99	0.980										-303.40280	1587.16028	-1177.68274																-490.31082	1174.11963	-1312.42322							-42.27650	910.30109	-1229.43762	-314.36810	935.63702	-1219.30334	-466.94421	1043.99475	-1106.57825	-20.20305	465.50421	-1280.42249	-393.30643	473.53302	-1284.48303				-387.33435	77.24136	-1425.98267	
100	0.990										-303.34888	1587.19629	-1177.66626																-490.04352	1174.07336	-1311.84985							-42.12983	910.27771	-1229.32739	-314.07968	935.91077	-1217.93860	-466.82971	1043.64038	-1106.26221	-20.64273	465.67850	-1278.15088	-393.19315	473.89682	-1282.68530				-387.27252	77.37364	-1425.70361	
101	1.000										-303.17517	1587.19690	-1176.90967																-489.77548	1174.01672	-1311.25586							-42.06248	910.27271	-1229.27686	-313.76184	936.21021	-1216.43420	-466.54834	1043.25159	-1106.17847	-20.60979	465.58295	-1277.93237	-392.95645	474.15640	-1282.05005				-387.23288	77.44734	-1425.52234	
102	1.010										-303.09256	1587.21716	-1176.89319																-489.33136	1173.81958	-1310.75269							-41.25122	910.28448	-1228.90466	-313.51736	936.32764	-1215.25806	-466.89645	1043.38635	-1106.01904	-20.18029	464.64685	-1278.45630	-392.43491	473.71811	-1281.63293				-387.17810	77.61781	-1425.28711	
103	1.020										-303.01495	1587.11633	-1176.57922																-489.06830	1173.32251	-1309.70911							-41.23745	909.48535	-1229.25110	-313.44684	936.32733	-1214.91296	-466.82596	1042.82532	-1104.68689	-20.11372	464.60675	-1278.03284	-393.05573	473.80795	-1279.47205				-387.12131	77.70722	-1425.02368	
104	1.030										-302.93240	1587.12646	-1176.56531																-488.91272	1173.19751	-1309.32373							-41.17372	909.45355	-1229.20337	-312.94434	935.52795	-1216.22156	-467.11850	1042.54187	-1104.35547	-20.02973	464.62018	-1277.50598	-392.79230	473.03683	-1278.27637				-387.07889	77.83218	-1424.83984	
105	1.040										-302.82681	1587.00647	-1176.28918																-488.76410	1173.05701	-1308.93921							-40.58722	909.24139	-1228.90405	-312.70798	934.67999	-1216.40466	-467.09808	1042.36401	-1104.21802	-19.97735	464.65683	-1277.18079	-392.65970	472.84119	-1277.82068				-387.03482	77.93019	-1424.64185	
106	1.050										-302.58838	1586.70020	-1175.13940																-488.39737	1172.60571	-1308.18982							-40.43111	909.21777	-1228.78674	-312.59802	934.69159	-1215.86841	-467.12408	1042.36340	-1103.86133	-19.90650	464.75189	-1276.74670	-392.45441	472.93890	-1275.60706				-386.97455	78.07464	-1424.37341	
107	1.060										-302.40512	1586.74194	-1174.92236																-488.23224	1172.04285	-1306.81543							-39.64558	909.06012	-1228.38062	-312.55560	934.67773	-1215.65845	-467.33151	1041.97290	-1102.77405	-19.45452	463.85556	-1277.87610	-391.95096	472.33740	-1274.36536				-386.89890	78.24882	-1424.03479	
108	1.070										-302.25070	1586.62537	-1174.61011																-487.66980	1171.93127	-1306.87292							-39.42504	909.49402	-1226.66858	-312.46179	934.73767	-1215.20923	-467.86133	1041.13599	-1102.51782	-19.60476	463.63892	-1276.68579	-391.67908	472.73184	-1272.38171				-386.82333	78.43233	-1423.69861	
109	1.080										-302.05011	1586.39282	-1173.74011																-487.45883	1171.86572	-1306.50513							-39.40531	909.18750	-1222.80713	-312.39963	934.74841	-1214.90649	-467.63824	1040.56995	-1102.02100	-19.50817	463.77954	-1276.09558	-390.67587	473.00302	-1271.08923				-386.72580	78.67538	-1423.26611	
110	1.090										-301.96106	1586.36804	-1173.73401																-487.26382	1171.81738	-1306.13928							-39.13969	908.74304	-1224.15063	-311.16394	932.55829	-1219.42590	-465.34921	1039.37537	-1100.51050	-19.29554	463.39618	-1275.35156	-390.56555	472.76718	-1269.77271				-386.50122	80.52622	-1424.58044	
111	1.100										-301.87085	1586.25134	-1173.45886																-487.10211	1171.82849	-1305.93335							-38.73908	909.25397	-1222.30688	-311.27554	932.04755	-1218.61206	-467.67392	1040.13721	-1100.98608	-19.14935	463.64145	-1274.46228	-390.13129	473.05179	-1268.03699				-386.44742	80.68923	-1424.34888	
112	1.110										-301.75217	1585.85364	-1172.40466																-486.95673	1171.85376	-1305.75305							-38.46033	909.28680	-1222.09753	-311.20508	932.11908	-1218.27869	-467.91885	1040.24878	-1100.66724	-19.00931	463.90201	-1273.61340	-389.03525	472.97430	-1266.37146				-386.28632	81.12979	-1423.64417	
113	1.120										-301.52109	1585.92737	-1171.47888																-486.81296	1171.88770	-1305.49536							-38.26967	909.29883	-1221.95447	-311.11554	932.20300	-1217.85388	-467.04660	1039.83081	-1100.85071	-18.72661	464.44382	-1271.90161	-388.83719	472.85925	-1264.75293				-386.64346	83.19598	-1420.99048	
114	1.130										-301.38635	1586.03455	-1170.95862																-486.65295	1171.97119	-1305.21790							-38.10767	909.30829	-1221.83276	-310.86899	932.52075	-1216.69849	-467.30151	1039.99792	-1099.90173	-18.45406	464.14661	-1270.79077	-387.72751	473.15463	-1262.95398				-386.45200	83.73928	-1420.15845	
115	1.140										-301.40884	1585.95056	-1170.87329																-486.47406	1172.07886	-1304.91138							-38.01829	909.33069	-1221.76563	-310.68286	932.75635	-1215.82520	-467.64520	1040.22131	-1099.93652	-18.50257	464.05136	-1268.97620	-386.90259	473.43649	-1261.01343				-386.29163	84.32544	-1419.49109	
116	1.150										-301.27509	1585.93311	-1169.79150																-486.29590	1172.18018	-1304.54639							-37.93632	909.34625	-1221.70398	-310.42603	933.06952	-1214.61853	-465.51410	1038.52405	-1098.10852	-18.46647	464.10861	-1268.75635	-386.64499	473.96683	-1259.28210				-386.36813	86.53769	-1418.93079	
117	1.160										-301.22311	1585.75940	-1168.90710																-486.13205	1172.31665	-1304.11609	150.87874	966.76215	-1271.93506				-37.89562	909.35260	-1221.67334	-310.15097	933.39746	-1213.32507	-466.78210	1039.37622	-1098.85474	-18.49686	463.99393	-1268.93384	-386.10861	474.89465	-1257.46594				-386.30527	88.82134	-1417.02209	
